<?xml version="1.0" standalone="no"?> 
    <!DOCTYPE svg PUBLIC "-//W3C//DTD SVG 20010904//EN" 
    "http://www.w3.org/TR/2001/REC-SVG-20010904/DTD/svg10.dtd">
    <svg version="1.0" xmlns="http://www.w3.org/2000/svg" 
    width="512pt" height="512pt" viewBox="0 0 512 512" 
    preserveAspectRatio="xMidYMid meet"> 
    <g transform="scale(0.350000)"
    fill="#000000" stroke="none"> 
    
    <path style="stroke:#000000; fill:none;" d="M307 438C320.116 449.799 315.412 484.467 303.698 495.57C298.261 500.723 284.247 502.395 277 503.562C244.58 508.782 207.026 512.091 175 502.482C156.58 496.956 137.422 486.404 121 476.551C95.2109 461.078 72.2283 440.789 55.0247 416C-19.2996 308.904 0.35376 160.123 99 74.2894C131.004 46.4423 170.936 27.8511 212 18.1157C248.395 9.48727 281.872 9.84241 318 21.0255C463.833 66.1662 548.645 241.221 479.247 380C462.914 412.662 438.665 440.603 409 461.86C399.614 468.585 388.432 478.378 377 481C376.354 452.01 385.963 423.196 382.826 394C381.423 380.936 373.618 368.311 369.344 356C366.513 347.845 363.06 323.426 353.965 320.256C350.563 319.07 349.15 322.25 348.978 325.015C348.522 332.374 347.916 341.949 350 349C352.626 344.713 355.038 338.266 350 335M173 76L180.468 98L187.694 110L176 124L160 104C156.339 116.385 171.212 130.678 153.002 135.709C150.76 136.328 148.295 136.045 146 136C146.949 113.903 150.129 92.7335 162.749 74C166.697 68.1393 173.723 57.5178 182 59.4236C192.874 61.9275 202.229 77.5504 206.486 87C208.176 90.7516 208.921 96.3914 211.843 99.4005C215.355 103.018 224.316 102.146 229 102.92C247.889 106.041 263.949 104.704 282 98M168 82L160 104M290 113C304.391 112.21 305.753 76.9592 317.668 101C318.966 103.619 319.649 106.407 321 109L322 107L321 104M302 93L269 113L292 119M280 100L279 105M201 104L189 110M322 107L322 112L321 109M325 113L322 113M267 113L269 113M326 115L323 115M327 117C322.83 120.618 325.898 129.066 326 134M324 117L325 118M327 117C334.026 127.278 333.481 142.203 340.013 151.686C341.957 154.508 346.203 154.486 348.999 156.09C354.249 159.101 358.31 164.943 358.895 171C359.494 177.197 357.782 183.865 354.15 188.957C351.655 192.453 345.392 194.88 346.952 199.999C348.579 205.337 354.022 205.357 357.715 208.433C363.812 213.511 370.277 221.392 374.657 228C380.197 236.359 375.123 245.299 378 254L390 254L378 255C375.941 262.76 384.872 266.534 390 271M293 121L297 122L295 122M294 122L295 122M300 123C312.377 131.225 329.245 138.405 331 155L333 150M166 128L173 132C167.23 138.969 158.32 149.95 157 159M173 131L176 129M171 130L170 134M169 133C164.853 137.544 158.944 143.505 160 150M145 137L148 145L152 137M134 205L135 209C139.029 202.113 140.187 192.264 145.394 186.21C152.538 177.905 171.001 168.334 181 163.78C184.084 162.376 187.805 163.859 190.711 161.982C193.626 160.101 194.681 155.591 197.083 153.04C203.938 145.764 213.267 143.377 223 144.09C230.428 144.635 238.206 147.857 243.985 152.519C247.315 155.205 249.548 160.293 254.043 160.971C262.325 162.222 269.223 157.192 277 155.156C289.755 151.816 303.344 156.171 312 166C316.752 163.408 324.009 162.83 323 156L320 161M148 146L123 173M147 147L150 157M158 150L158 152M334 154L339 154M324 155L329 155M327 156L322 157M183 162C183.936 156.39 188.151 157.004 193 157M261 162C259.538 169.012 254.403 168.459 251 163M185 164C188.121 199.528 248.888 206.045 252 168M320 165C319.364 168.993 317.993 170.364 314 171C314.561 189.892 333.956 189.621 346 197M312 167L313 170M179 168L179 170M140 169L138 174C133.55 173.655 132.486 178.364 130.78 182C126.563 190.987 121.909 199.885 118.001 209C108.288 231.654 107.801 260.009 93.0756 280C85.459 290.34 76.0239 296.122 65 302C71.6681 314.58 82.6948 312.848 94 310C94.8315 324.628 88.5691 340.286 87.1698 355C84.9902 377.918 92.702 409.666 105 429C112.943 422.944 122.217 418.06 131 413.309C139.589 408.663 149.173 404.226 159 403.174C174.615 401.502 186.645 411.649 197 422C208.373 433.369 220.391 443.939 232 455.039C237.646 460.438 243.035 468.473 250 472C248.698 459.004 227.299 420.046 256 425.084C259.075 425.624 262.061 426.378 265 427.435C270.018 429.24 274.948 431.291 280 433M128 170L134 172M136 171L138 171M138 174L136 191L143 188M136 191L135 196M353 194L354 198M134 198L134 201M347 202C338.92 206.769 323.557 202.26 314 203.17C310.965 203.459 304.13 203.12 302.607 206.318C300.283 211.201 304.124 217.132 308.019 219.676C315.208 224.37 332.955 229.566 336.954 237.133C340.288 243.442 331.078 251.932 327.424 255.961C314.404 270.32 294.27 279.173 275 280M248 219L257 230C270.8 220.393 284.626 207.602 302 205M135 209L135 212M359 213C358.384 224.245 345.93 229.707 338 236M237 227C237.57 234.384 244.333 234.982 250 238C242.835 247.291 229.94 241.994 219 242M250 238L252 238M378 247L390 242M215 243L213 245M338 243C344.123 250.31 351.194 259.133 361 261.468C366.025 262.664 371.051 260.928 376 262M245 244L249 246M215 249L239 246M335 249L341 250M373 250L376 250M169 252C164.962 263.86 157.594 269.606 148 277L163.17 301.999L199.888 331.625L205 339L204 336M376 262C375.997 286.161 363.159 298.42 354 319M84 314C81.6618 323.057 75.3973 330.823 72.7215 340C66.4127 361.635 65 383.348 65 406M291 427C277.016 421.377 291.906 400.824 296.244 392C300.104 384.149 303.723 375.6 305.505 367C306.264 363.34 304.159 359.372 305.703 356C312.103 342.022 335.528 330.248 348 322M197 332L202 338M202 333L200 335M205 339L207 341M349 350C357.634 378.077 348.976 408.003 356 436L357 432M349 355C344.979 386.648 334.785 418.348 310 440M308 356L307 360M304 359L295 372M205 375C216.685 384.716 222.84 397.626 231 410M344 389C343.444 415.936 330.583 454.094 315 476M96 413L97 416M97 416L98 419M98 419C98.6434 423.373 99.3204 431.616 105 430M161 435C172.172 442.631 180.92 453.042 187.219 465C189.798 469.896 190.698 479.657 194.564 483.262C198.338 486.781 207.121 486.595 212 487.414C226.326 489.816 250.169 498.242 264 493L251 473M356 436L357 440L358 435M360 441L357 441M358 442L359 445L361 442M359 445L360 448L361 444M362 447C365.192 452.035 368.577 458.225 366 464L360 448M368 463L369 471L366 464M276 513C315.354 512.674 340.979 487.748 376 475M312 476L312 479M377 481L353 493"/>
    </g>
    </svg>