<?xml version="1.0" standalone="yes"?>
<svg xmlns="http://www.w3.org/2000/svg" width="514" height="514">
<path style="stroke:#000000; fill:none;" d="M203 76L207 80C210.595 67.8376 206.509 53.7794 213.139 42.0146C216.625 35.8283 222.769 35.0752 229 33.5247C233.617 32.3758 239.158 29.9489 244 30.8002C248.501 31.5915 252.47 35.9673 256 38.6258C264.13 44.7491 272.521 50.3845 281 56M193 68L185 60L201 51C197.802 46.8496 195.223 42.3278 196 37L204 50L211 43M264 78C255.46 82.1769 246.256 88.9978 244.34 99C243.254 104.669 244.654 110.404 243 116L212 91C220.469 82.5309 228.267 71.6049 238 64.6373C248.858 56.8643 264.059 55 277 55M154 153C151.889 137.325 151.887 125.691 154 110L150 109C153.376 94.4144 161.169 81.3068 170.725 70C174.358 65.7022 177.719 58.78 184 60M198 72L200 74M267 83C274.156 68.77 293.129 84.222 297.626 93C309.043 115.287 312.766 142.264 299 164M206 79C203.491 84.4418 207.004 88.5638 212 91M207 81L211 87M266 85L266 95M215 90L241 109M211 91L212.519 105L209 158M154 109C165.392 94.1819 191.89 96.318 209 93M215 95C216.769 115.13 229.536 142.23 239 160C233.223 163.385 218.373 173.176 212 172.944C201.622 172.566 189.803 163.741 179 161.921C172.356 160.801 157.398 162.402 155 155M268 99L286 116L290 114L284 105M199 100C182.997 116.003 167.83 131.79 159 153M263 100C260.026 109.126 254.798 114.589 263 122M268 101L279 114M213 106C222.306 120.986 230.016 143.78 234 161M149 110L152 110M250 112C252.425 120.204 255.444 136.478 254.394 144.946C253.706 150.484 245.321 157.418 242.876 163C235.695 179.39 231.727 197.437 222.85 213C218.298 220.979 213.737 236.198 205 240C208.319 251.133 219.209 265.224 229 250C231.433 256.89 224.334 265.771 217 265.677C208.667 265.57 203.217 260.631 199 254C192.386 267.763 215.971 281.508 222 266M149 113L149 114M261 116L270 125M282 122L278 118L284 116M286 116L287 120M290 116L290 119M296 116L296 161M245 117L245 118M257 119L261 124C256.133 130.879 262.003 132.553 264.112 139C265.845 144.3 265.916 151.353 267 157M262 119L263 120M282 119L283 119M264 120L266 123L261 124M246 121L250 148M291 121L291 123M257 122L258 126M292 129C291.858 135.862 291.435 142.34 286 147M258 133L264 160M281 137L275 138M289 137C283.174 148.223 275.961 146.362 267 140M306 138L306 142M266 142L266 146M310 144C327.812 152.312 330.496 184.108 335.29 201C336.889 206.633 341.345 216.257 339.998 222C337.377 233.172 325.804 245.191 318 253C313.688 243.06 310.678 221.272 327 222M267 148L277.562 157.184L279 184L282 237M256 149L258 154M293 149L285 157L293 162M158 155L158 156M314 156L302 179L283 159C281.583 167.371 283.591 176.554 283.961 185C284.84 205.082 285.924 224.986 287.83 245C288.701 254.139 286.713 266.41 290.032 274.98C292.202 280.581 297.349 279.285 302 277.783C310.547 275.024 319.643 269.03 322 260M321 156C304.879 175.488 316.844 200.55 320 222M279 157L284 157M276 159L264 178L252 160M210 160L210 165M236 163L236 165M250 171C263.611 196.961 241.985 226.753 229 249M255 202L250 247L263 233C264.963 240.858 257.993 253.373 249 251C240.794 267.763 248.759 276.416 266 279M235 206L236 220M314 206L312 230M256 215C256.221 220.158 258.272 225.091 253 228M323 219L332 217M314 221L314 227M321 225L324 237M256 227L259 232M311 229L309 231M309 248C304.374 244.282 300.275 239.18 301 233L316 250M208 241L207 242M282 241L282.576 271L279.682 279.971L268 280M204 242L206 245M329 242C333.075 247.053 340.789 263.317 337.084 269.715C332.915 276.913 323.082 279.419 319.43 287.004C311.875 302.692 306.961 325.729 304.755 343C303.752 350.857 309.776 357.927 312.302 365C315.232 373.205 315.535 381.634 317.525 390C318.842 395.537 322.379 400.431 323.452 406C324.976 413.906 316.828 418.404 317 425L319 421M204 243L200 253M326 247L326 249M249 248L249 251M325 251L325 253M323 257L323 258M314 260L318 268M333 261L332 264M322 267L330 271M319 270L320 275M206 272C198.836 281.852 192.055 292.297 186.231 303C183.557 307.913 179.866 311.673 183 317C192.518 304.966 205.655 287.771 210 273M250 274C243.52 285.69 253.854 290.238 264 293.279C281.496 298.521 302.341 290.797 319 286M254 290L263 354L262 384L266.667 410L266.167 422L271 425M288 294C284.809 309.468 279.013 328.118 281.3 344C283.732 360.886 293.57 377.421 298.08 394C300.12 401.498 306.09 429.174 317 425M283 295L283 310M176 313C161.826 336.567 150.349 362.026 136.719 386C133.332 391.958 129.378 397.821 126.418 403.999C125.616 405.673 124.533 409.94 127.984 409.369C133.302 408.488 139.82 394.27 142.667 390C154.339 372.491 166.185 355.124 178.421 338C183.169 331.355 191.714 323.877 184 317M176 315L185 322M299 347L298 355M281 350C281 366.77 282.082 383.381 284.424 400C286.586 415.34 292.029 422.555 284 437L273 428M272 360L274 368M319 399L320 401M298 401C298.372 418.477 313.368 431.433 321 446M320 401L318 420M128 411C133.322 424.566 111.944 406.982 124 408M325 413C325.307 427.874 334.246 442.592 333.736 457C333.45 465.08 320.666 484.192 313.179 470.891C310.955 466.94 312.208 461.342 311.91 457C311.275 447.717 310.387 438.999 308 430M120 415L105 440L109 443L125 417M268 415L271 425M286 415L286 430M268 425C268.398 434.133 271.464 445.465 280 450L284 437M290 430C287.908 441.311 290.06 454.691 291.92 466C292.853 471.676 295.365 479.306 293.316 484.957C290.152 493.685 273.496 493.459 272 484C279.815 485.612 285.079 486.865 292 482M313 434L314 435M314 435L318 446M109 443L102 457C96.4263 450.499 98.476 445.038 105 440M276 448C272.369 454.839 274.752 460.052 282 462C282.309 458.807 281.4 455.701 278 458L278 459L278 460M101 461C97.8156 464.85 88.4295 467.282 89.662 458.985C90.2452 455.06 94.0304 452.138 97 450M279 450L280 454L281 451M94 456L97 461M274 461C272.209 468.743 267.932 476.375 272 484"/>
</svg>
