<?xml version="1.0" standalone="yes"?>
<svg xmlns="http://www.w3.org/2000/svg" width="514" height="514">
<path style="stroke:#000000; fill:none;" d="M261 172C255.782 169.489 243.387 172.6 239.988 168.512C234.44 161.839 239.161 146.998 237.826 139C234.142 116.94 220.362 99.8589 226 76L254 92.3001L268.039 105.583L283 102.425L300.502 101.933L308.356 89L329 58C335.46 71.8103 341.466 87.6081 341.957 103C342.22 111.249 338.038 119.889 339.076 128C339.928 134.65 344.996 140.151 345.816 147C346.436 152.184 344.021 157.004 345 162L362 161M324 72C321.21 78.8031 316.342 86.868 320 94M222 82C222 78.714 221.2 75.446 225 75M227 79L257 115M223 84L223 91M318 92L312 105M323 99L323 105M244 101L245 102M247 105L247 106M324 107L324 108M326 110L331 108M246 109L248 110M239 137C240.96 129.065 243.828 118.678 250 113M299 123L300 141M271 124L267.054 139L267 151C268.038 162.709 255.296 149.966 251 149M335 127L338 128M321 140L298 152M301 149C302.806 145.728 304.382 145.19 308 146M258 149L266 150M314 161C327.693 154.93 346.068 150.651 361 150M343 162L343 165L345 162M332 164L335 164M337 164L338 164M316 165L318 165M343 165C340.346 167.854 338.972 169.598 335 169M314 167L315 167M321 167L322 167M329 168L332 168M231 170L238 170M283 170L290 178M288 173L292 170M241 171C244.852 190.358 275.791 199.497 293 201M341 171L354 174M338 172L331 178L342 186M315 174L330 177M348 174C350.824 193.195 358.833 210.069 357.961 230C357.044 250.928 347.046 270.036 341.941 290C333.576 322.709 329.043 357.622 322.804 391C320.081 405.567 319.391 421.205 320.039 436C320.362 443.369 323.15 452.961 319.427 459.891C316.676 465.013 311.679 463.25 307 464.16C298.291 465.854 292.178 467.704 283 466M254 176L258 176M260 176L263 176M288 176L283 180M245 178L252 177M228 182L244 178M292 179L294 180M320 179L337 195M326 183L331 179M252 186L262 183M296 201L323 183M249 186L235 194M258 191C226.886 222.373 217.66 272.657 200.139 312C194.293 325.126 179.704 341.59 183 357L191 345M241 225C237.485 252.813 246.065 276.661 253.573 303C259.576 324.06 264.809 346.318 267.849 368C269.102 376.937 268.898 386.181 270.325 395C271.316 401.124 274.178 409.969 270.972 415.91C267.839 421.717 260.544 421.682 257 426L259 425M291 258L292 263M293 265L295.985 298L298 338C312.442 317.91 337.149 295.623 343 271M341 294L339 296M317 327L297.314 363L298.961 401L299.39 435L306 463M205 347C225.116 336.276 251.332 331.8 260 359C244.782 350.561 232.116 350 215 350M297 339L297 359M194 340L192 343M181 357L182 360L183 357M260 359L266 368M182 361C175.962 374.617 171.693 394.213 181.529 407C188.376 415.901 198.545 420.997 205.762 429.184C210.569 434.637 206.184 442.446 214.019 446.431C228.054 453.57 244.882 448.411 258 459L258 451M156 422C153.061 426.442 146.563 434.2 148.492 439.961C150.483 445.905 160.72 450.175 166 452.564C182.385 459.978 200.111 464.315 216 472.782C223.502 476.779 238.044 486.704 235.307 496.999C233.371 504.281 226.471 505.774 220 506.13C206.982 506.845 193.932 499.885 182 495.424C155.454 485.5 109.774 475.261 119.76 437C121.472 430.442 125.133 424.738 128.601 419C133.227 411.347 138.952 404.694 144.845 398C153.072 388.655 164.328 374.978 177 372M157 419C157.255 406.722 164.073 397.443 175 392M269 397L258 423M272 418C271.936 436.228 238.474 433.517 225 435M257 426L255 430M143 437L146 440M262 437C268.795 439.314 275.132 442.648 278.995 449C282.724 455.134 282.596 467.098 273 467.333C266.145 467.5 262.671 462.975 259 458M289 451L290 464"/>
</svg>
