<?xml version="1.0" standalone="yes"?>
<svg xmlns="http://www.w3.org/2000/svg" width="514" height="514">
<path style="stroke:#000000; fill:none;" d="M181 168C185.436 166.705 193.56 167.473 193.323 174.001C193.212 177.062 190.193 180.429 188.72 183C184.949 189.583 182.236 198.605 177 204L163.965 185.039L159.346 178.185L180 168L179 167C171.888 169.161 164.253 169.753 157 171.474C155.322 171.872 150.456 173.703 149.921 170.758C148.982 165.582 167.19 155.932 171 153.344C188.728 141.303 207.27 133.439 228 128.374C235.004 126.663 245.54 123.223 252 127L273.436 119.146L280 104C281.536 109.588 279.63 114.989 277 120L293 130M275 121C267.214 142.395 257 161.432 257 185L261 184L264.664 195.015L260 213L255 212L245 250L253 251C249.637 239.599 256.456 225.464 258 214M251 124L253 124M251 126L220 145L222 141M292 130L293 130M295 130C329.448 139.255 355.405 165.729 367.806 198C370.461 204.911 374.776 213.6 375.444 220.995C376.066 227.863 365.293 224.881 366 231L366 232L367 233L367 234M294 132C305.546 143.554 316.733 158.217 321.784 174C323.627 179.76 324.924 185.948 324.996 192C325.026 194.516 324.144 199.265 326.028 201.292C328.999 204.489 339.181 197.969 344 200.14C354.622 204.927 363.636 216.133 372 224M206 159L204 162C205.23 155.16 213.512 147.866 219 144M220 146L209 157M207 156L205 158M202 162L205 162M203 164L196 175M199 176L237 171.472L261 180.194L271 177.111L290 184.222L295 188M154 174C154.064 176.962 153.828 178.728 157 178M154 179L149 184M280 180L262 187M262 181L262 183M256 186L260 190L255 212M298 188L324 203M177 205L209 204.039L242 214C238.385 201.849 239.679 190.71 255 189M296 189L313 231L313 229M254 191L242 240C235.47 222.823 217.376 243.862 232 249C230.456 256.961 227.972 266.168 239 267L242 242L241 242C240.032 245.166 239.229 247.82 242 250L245 250M335 202C337.389 207.023 346.489 221.255 343.787 226.683C342.286 229.699 336.833 229.556 334 230.095C326.438 231.534 319.58 238.427 314 231M243 212L247 211M261 214L266 221C272.858 215.383 279.508 213.075 284 222C292.738 219.489 302.998 225.015 310 230M361 214L363 216M241 216L237 222M362 217C363.631 228.153 357.941 230.156 347 231L345 228M263 220L264 226L263 223M284 222L293 238L286 240L286 250C276.919 249.119 282.623 260.025 283.873 265C288.051 281.623 291.718 298.372 295.873 315C303.686 346.259 312.139 376.423 322.333 407C325.381 416.142 335.827 434.32 333.882 443.812C332.577 450.181 311.028 442.947 306.527 447.603C300.16 454.19 315.915 475.346 301.981 479.427C288.04 483.509 295.53 462.884 293.682 456.058C292.633 452.18 288.222 450.874 286.765 446.981C281.809 433.74 279.537 418.76 276.349 405C275.089 399.562 270.527 395.504 272 390L273 392L274 393L274 394L274 395M348 232L349 236M281 235L285 249M293 238L297 238M242 240L242 242M262 243L254 251M265 245C271.84 249.829 282.293 257.867 278 267M233 248L234 246L238 249M270 252L260 252L266 247M272 249L280 252M252 252L259 253M249 271C248.858 288.135 243.88 306.099 241.08 323C236.453 350.938 232.915 379.021 228.576 407C226.916 417.7 227.462 434.079 222.411 443.682C221.005 446.355 217.448 446.062 215.019 445.106C205.463 441.344 214.543 413.088 215.919 405C221.588 371.665 226.792 338.2 233.197 305C234.802 296.678 236.36 288.362 237.753 280C238.225 277.17 238.058 271.88 240.024 269.644C242.312 267.04 247.405 269.99 250 270.715C257.525 272.814 265.806 278.595 273 274M277 269L275 271M258 302L264.75 347L272 389M272 397L274.285 435L275 461C269.213 458.771 258.631 453.394 253 457L222 446M293 452L304 449M244 453C244 456.998 245.146 463.193 242.972 466.726C241.165 469.663 235.424 470.685 236.06 474.957C238.084 488.551 265.718 470.126 245 472.019C242.105 472.283 239.845 472.616 237 472M253 454L254 455M253 458L255.603 464.972L267 466L293 467M294 465L306 472M310 465L344 471.533L369 490M255 466L255 473M238 467L241 467M233 469L236 472M366 490C352.201 490.285 338.699 494.92 325 495.787C295.417 497.659 265.075 496.668 236 491.424C221.581 488.824 208.906 487.533 196 480C206.168 474.109 221.372 470.566 233 469M245 469L249 471M294 473L303 473M195 480L196 480"/>
</svg>
