<?xml version="1.0" standalone="yes"?>
<svg xmlns="http://www.w3.org/2000/svg" width="514" height="514">
<path style="stroke:#000000; fill:none;" d="M112 91L102 107C100.4 97.7362 95.7518 95.9844 91.5324 87.9992C85.0902 75.8072 83.103 60.4486 86.0147 47C87.9024 38.2805 96.1286 17.0309 108 18.7276C120.223 20.4746 126.641 41.915 128 52M165 77C146.082 63.8658 161.249 26.2219 183 24.257C191.995 23.4443 195.863 34.0975 197.961 41C202.923 57.3256 204.834 81.1632 195 96C178.091 83.0794 182.557 59.8777 179 41M105 40L111 80L128 71M122 79L157 74M203 79C206.23 102.968 213.993 126.816 217.573 151C219.566 164.467 219.363 176.97 231 186M110 81L102 97M149 109C147.635 113.703 141.725 116.714 140.361 109.981C139.522 105.836 142.246 101.727 145 99L147 103M102 107L106 121M111 115L109 118M80 139C83.7352 130.855 107.34 123.556 116 123M179 124C182.11 129.381 192.467 135.936 192.883 142C193.268 147.631 183.552 154.465 180 157.999C161.344 176.565 139.163 174.365 115 178M82 138C84.9457 137.86 99.3236 136.396 97.6543 142.09C96.4174 146.31 88.8272 150.248 86 154C81.4334 149.392 76.5615 144.929 78 138M127 161C132.555 157.432 141.156 150.5 147.926 150.071C154.355 149.664 147.968 158.526 145.815 159.991C140.069 163.899 131.485 161.565 125 162.064C111.963 163.068 90.6412 175.278 86 154M113 178C114.717 197.664 108.241 214.354 105.428 234C103.369 248.382 104.099 263.538 105.09 278C108.04 321.088 126.11 362.875 127 406M127 178C139.987 193.237 157.251 219.961 152.996 241C151.621 247.801 149.301 256.331 142.96 260.242C138.923 262.733 135.068 260.24 132.418 256.956C127.125 250.397 124.522 240.537 120.753 233C119.332 230.158 116.496 226.331 116.569 223.043C116.671 218.533 124.64 214.394 126.647 210C130.392 201.802 129 191.775 129 183M224 185L228 186M226 188L238 201L233 204C242.378 222.852 262.719 254.709 285 258M146 319C148.874 318.526 152.723 323.533 155 325.381C162.394 331.384 170.981 335.95 179 341.054C181.364 342.559 188.42 349.274 191.068 345.573C192.901 343.011 190.192 338.516 189.355 336C186.852 328.481 184.34 320.749 182.662 313C177.171 287.644 181.223 268.063 196.424 247C203.593 237.068 210.928 228.11 224 228M237 236L239 238M240 240C256.665 265.269 259.99 293.917 253.576 323C250.649 336.268 245.118 348.844 242 362L249 358M305 261C318.621 261 334.811 259.591 348 263.159C379.836 271.771 396.721 300.873 407 329L405 328M131 280L136 305L123 284M138 306L145 317M171 316L191 346M146 320L157 332M336 325C319.004 336.247 300.64 348.585 298.188 371C297.571 376.64 299.557 382.394 300 388L270 376C267.279 381.545 268.247 392.069 270 398C273.797 391.802 273 385.034 273 378M406 331C409.414 362.057 387.753 387.073 382.569 416C381.203 423.624 389.208 427.138 389.762 434C390.196 439.386 387.425 445.815 386.127 451C382.885 463.948 379.902 478.013 373.865 489.999C372.309 493.088 370.316 495.712 366.985 496.968C362.691 498.587 358.385 497.233 354 497.039C344.705 496.629 327.43 500.798 326 488M189 345L187 347M192 348C196.501 358.622 195 371.691 195 383C195 406.219 197.522 433.431 191.481 456C187.958 469.165 169.539 471.321 173.394 487.999C176.047 499.475 205.978 498.571 214.999 495.106C217.96 493.97 220.327 491.712 221.911 488.995C226.276 481.513 226.4 470.387 228.21 462C234.329 433.646 233.496 399.738 245 373L268 376M170 349C170 374.264 169.144 399.769 168.039 425C167.168 444.907 167.23 464.909 160.301 484C156.028 495.773 141.582 494.014 131 492.714C126.487 492.159 120.871 491.738 118.894 486.945C114.532 476.376 124.22 469.499 127.772 461C129.806 456.132 129 450.163 129 445M415 359C415.823 366.382 421.828 368.567 427 373C423.072 372.907 420.89 371.442 419 368M242 362L237 368M246 363L245 373M428 373C437.867 379.039 448.104 384.463 458 390.45C461.229 392.403 467.364 395.524 467.364 399.961C467.364 405.995 457.1 406.455 453 407.475C439.512 410.831 423.383 415.505 415 401M301 389C303.728 398.974 309.137 406.993 317 413.699C327.429 422.594 337.957 425.545 338 441M394 392C397.964 403.641 405.652 411.613 416 418L417 407M270 398C270.789 422.736 299.575 441.776 289.523 468.981C287.821 473.588 282.135 475.06 279.477 479.019C276.683 483.179 277.55 492.383 282.157 495.111C288.351 498.778 302.878 496 310 496C312.733 496 316.385 496.575 318.843 495.111C322.74 492.79 322.736 479.813 327 481L327 482M128 408L128 416M129 418L129 421M376 431L382 437M337 450C336.495 461.768 333.691 469.292 326 478M136 472L132 487M195 477L192 489M349 479C344.78 484.269 344.018 489.395 344 496"/>
</svg>
