<?xml version="1.0" standalone="yes"?>
<svg xmlns="http://www.w3.org/2000/svg" width="514" height="514">
<path style="stroke:#000000; fill:none;" d="M101 336C104.773 337.977 115.916 340.382 117.508 344.279C120.062 350.525 113.302 359.868 119.318 365.486C126.014 371.74 138.262 364.962 145.566 370.027C150.423 373.394 149.022 383.866 153.529 388.671C161.84 397.528 169.149 388.999 177.686 391.788C181.196 392.934 181.046 400.091 183.005 402.856C185.798 406.796 191.554 407.248 196 407.663C202.045 408.227 211.602 407.901 216.981 404.86C221.565 402.27 222.349 396.696 228.015 396.044C241.485 394.493 257.546 390.355 270.91 390.674C283.392 390.971 292.859 398.833 305.995 391.721C316.65 385.953 306.869 376.542 313.318 369.325C325.138 356.096 340.39 345.997 347.826 329C358.55 304.487 349.07 284.924 340.425 262C335.007 247.634 330.315 233.651 319.829 222C309.292 210.291 296.464 202.464 285 192C301.592 177.893 323.119 170.525 340 156.439C343.917 153.17 350.483 150.473 352.972 145.907C356.919 138.666 355.82 125.234 357.25 117C361.458 92.7726 366.773 61.5326 383 43C386.859 54.308 388.614 66.2379 390.586 78C391.087 80.9849 390.947 87.9881 394.317 89.3063C399.688 91.407 404.617 85.7477 407.165 81.9962C414.317 71.4671 421.318 58.2965 432 51L429 51M428 54L430 54M431 55C430.992 66.752 430.228 81.3219 425 92C431.91 97.0237 439.798 100.986 445.815 107.171C455.183 116.801 456.566 123.443 470 128C467.641 137.094 462.902 144.363 470 152M385 70L384.397 97L372 113M284 192L264.78 140L256 124C249.905 143.06 238.877 164.061 228 181C217.159 174.774 200.814 179.722 189 181.155C185.286 181.606 180.665 183.336 177.015 181.972C170.405 179.501 168.108 170.287 168.019 164C167.79 147.882 175.11 134.388 177.674 119C178.683 112.947 176.391 106.853 178 101L183 105C186.734 96.1504 183.898 81.876 191 75L202 94L202 93L202 92M421 92L425 92M203 98L207 107M438 108L439 114L440 111M208 110C213.89 131.533 226.227 153.887 222 177M439 114L443 127C445.441 121.998 443.48 117.706 441 113M251 130L251 133M458 134L463 138M465 147L458 152C455.334 146.771 457.145 143.452 463 143M260 146L246.312 173L240.606 183.763L229 180M458 153C451.788 155.378 438.991 156.685 435.013 162.418C429.994 169.651 433.327 184.639 432.961 193C432.219 209.93 427.531 236.362 419 251L412 201M176 183C163.955 190.668 152.6 196.04 144 208C154.509 215.634 167.454 223.414 180 227M143 262C122.991 253.086 111.241 237.927 96.8302 222C90.827 215.365 73.8427 206.978 88 202L83 193C102.39 187.282 124.367 205.76 143 208M252 227L223 214.721L175 202C181.027 197.434 192.948 200.332 200 201.282C225.127 204.667 251.867 217.28 265 240M172 201L175 201M316 256C312.293 261.795 314.958 268.181 317.785 273.999C318.701 275.882 321.427 281.783 324.372 279.248C326.608 277.324 324.729 273.195 323.996 271C321.648 263.966 315.448 256.372 316 249C310.447 249.529 307.66 250.686 304 255L301.157 235L297 219L308 231M161 277C148.498 262.331 144.485 245.205 140 227C149.022 224.52 159.726 230.089 168 233.4C170.646 234.458 176.496 235.746 176.898 239.214C177.63 245.525 167.902 256.681 165.695 263C162.057 273.421 163.488 286.13 152 289L173 300M309 235C319.341 232.573 322.162 241.708 316 249M315 239L318 246M424 243C448.979 235.617 460.194 261.025 455.1 282C453.117 290.167 447.704 294.369 443.874 301.285C440.87 306.71 444.31 312.728 438.786 317.57C434.816 321.051 412.686 325.337 409.029 320.477C406.373 316.948 409.383 309.703 410.427 306C412.669 298.042 413.88 290.178 415 282C416.414 271.675 417.089 261.257 419 251M117 247L114.015 278L116 309L108 305C107.464 314.409 109.987 323.056 115 331L103 336M311 250L314 257M312 250L315 253M240 254C237.143 259.432 229.801 268.843 230.742 275C231.169 277.794 234.321 285.729 238.415 283.534C241.003 282.146 239.973 277.794 242.514 276.052C246.582 273.265 261.276 280.957 260.882 273.941C260.23 262.318 250.228 267.371 244.513 263.883C242.25 262.501 241.291 258.224 240 256M107 316C96.0768 320.701 83.0733 323.359 73.1481 330.213C67.1953 334.324 68.4753 341.704 59 341.817C35.0805 342.102 36.0578 306.534 43.9012 292C57.2112 267.337 88.426 256.141 115 255M247 277C251.423 284.607 254.229 293.722 257.217 302C258.233 304.816 260.412 308.857 258.879 311.836C256.758 315.959 251.963 313.419 249.85 310.786C246.08 306.087 244.269 298.891 244 293L252 292M241 285L243 292M150 288L152 290M329 288C329.071 291.519 331.597 294.514 331.381 298C330.903 305.736 321.114 309.628 315.425 304.682C310.871 300.723 311.191 295.659 307.975 291.603C306.569 289.831 304.005 290.066 302 290M161 289L160 291M71 331C68.4758 327.959 65.75 324.647 64.1358 321C60.8113 313.489 66.169 306.237 72.0039 301.927C84.6418 292.593 98.3923 292.712 113 290M160 295L157 308L171 311M413 299C422.387 300.109 433.901 296.175 442 302M309 300C308.195 304.718 310.267 306.776 315 306M156 309L145 306L157 306M307 306C303.457 313.426 292.866 315.135 290.318 321.144C287.688 327.348 295.709 332.705 301 332.64C314.375 332.477 317.697 318.198 315 308M67 324C77.4543 315.965 90.1347 309.976 103 307M116 309L119 313L111 316M157 310C156.919 319.754 152.292 343.531 168.975 331.264C170.764 329.949 172.363 328.494 174 327C168.382 325.343 163.172 326.404 158 329M450 310C455.46 310.435 471.143 311.66 473.787 317.278C475.859 321.681 470.147 330.37 467.938 334C459.244 348.289 449.17 359.02 436 369.338C405.678 393.093 370.627 411.103 338 431.424C312.658 447.207 285.3 467.396 256 475.076C243.346 478.392 229.87 468.682 219 463.247C190.706 449.1 163.278 433.386 135 419.247C108.979 406.236 73.9576 393.662 53.3002 372.711C47.255 366.579 41.3469 359.078 36.4429 352C34.6952 349.478 31.7512 345.477 33.213 342.225C34.7393 338.829 41.1784 336.515 44 334M443 318L465 319M276 321C274.998 325.789 272.5 336.069 266.134 336.248C258.649 336.459 269.545 326.112 271 325M458 326L467 322M391 324C405.991 324.811 409.423 338.945 401.211 349.961C397.204 355.335 390.977 357.857 386.329 362.468C383.552 365.222 382.412 368.207 382 372L416.001 348.375L440.821 334.92L455 324M411 324L406 328M445 333L456 327M148 333L156 330M348 332C348.816 338.317 349.388 346.487 353.005 351.906C361.72 364.964 382.185 357.008 394 355M441 333L443 332M116 333L119 343M54 348L50 343C46.8305 344.801 45.0711 345.251 43 342L52 341M329 356C330.74 356.943 332.081 357.611 334.025 358.046C348.742 361.337 339.388 347.18 349 344M48 345L50 347M60 350L57 348C58.5566 347.829 61.8095 348.044 60 350M63 350L78 355M401 353L409 352M72 356C78.6939 360.78 82.8857 359.275 90.0008 361.353C103.45 365.28 113.202 370.002 123 380M345 359C342.411 375.585 326.063 379 312 379M83 362L111 380M274 390L311 371M381 373C372.765 384.586 355.915 392.477 344 399.95C338.921 403.135 333.586 408.11 328.039 410.288C324.295 411.758 321.065 409.43 316.999 411.383C313.712 412.963 308.991 414.6 306.613 417.471C304.324 420.235 305.068 423.658 301.902 426.034C293.272 432.509 276.609 441.51 266.054 443.752C263.81 444.228 261.905 442.402 259.884 442.898C255.217 444.045 255.276 450.16 249.004 449.847C243.586 449.577 238.306 443.868 233 442L232 443L235 444M116 379L116 381L116 379M122 379L117 380M333 399C341.718 393.62 361.508 376.475 372 381M116 381L117 384L120 384M311 381C305.741 383.806 300.401 383.279 295 381M121 383L129 386M120 385C130.742 393.519 142.382 400.503 154 407.684C159.448 411.051 166.643 416.684 172.946 418.038C176.394 418.778 178.425 415.091 182.019 415.383C194.482 416.398 209.403 424.824 220 431.012C224.675 433.741 229.549 436.013 232 441M147 398L167 410M321 414L307 423M262 442C272.685 431.41 290.246 421.504 305 418M176 419C188.593 429.346 215.7 441.366 232 443M244 446L256 444"/>
</svg>
