<?xml version="1.0" standalone="yes"?>
<svg xmlns="http://www.w3.org/2000/svg" width="514" height="514">
<path style="stroke:#000000; fill:none;" d="M177 78L191 83.6913L214 97.5178L226 107.958L244 108L267.985 109.227L280.015 97.1736L307 79M180 81L203.547 105L208.698 115.961L188 135M309 81C313.341 93.7184 316.55 107.602 317.83 121C318.456 127.546 316.977 134.549 318.278 141C320.475 151.898 326.91 161.394 328.572 173C329.691 180.816 329.148 189.122 328.999 197C328.947 199.783 327.677 204.166 329.117 206.683C331.544 210.924 342.663 210.452 347 211M176 82L176.09 119L178.439 140L170.9 160L168.61 187L162 203L178 209M300 92C294.545 97.5711 281.941 110.105 283.423 118.892C283.933 121.92 287.375 123.367 289.425 125.27C295.137 130.572 300.627 136.511 307 141L309 109M225 108L220 110M192 114L192 115M194 117L200 124M295 118L289 123M256 141L257 159M211 143L209 155M204 203C195.037 197.788 192.998 188.693 191.733 179C190.913 172.715 193.421 165.867 200.944 169.843C205.135 172.058 210.299 189.245 210.508 194C210.694 198.224 207.578 201.969 204 199L204 198M270.004 169.522C289.252 166.357 283.12 201.094 266 202.613C258.767 203.254 255.305 194.974 255.041 189C254.623 179.531 260.129 171.146 270.004 169.522M265 174L266 192M207 175L211 191M207 187L204 196M331 190L338 189M297 201C306.189 196.157 318.567 191.477 329 191M135 201L162 203M163 204C163.097 215.755 166.032 217.007 177 217M328 207C322.188 222.762 315.528 229.573 302 240C330.768 268.771 356.609 308.974 372 346M300 210L326 209M226 210L230 211M147 217L156 218L144 222M156 218L163 217M297 217L319 222M166 218C166.681 220.869 169.068 224.968 168.338 227.895C167.033 233.127 154.59 238.022 150 240M224 226L240 227M324 224L329 226M168 225L160 231M330 226L342 231L334 228M223 254C209.021 251.936 195.107 244.204 183 237.258C179.029 234.98 170.988 230.982 175 226M334 226L335 227M331 227L332 227M170 228L172 228M311 228L314 230M341 232L345 234L343 232M345 234L349 238M368 329C368 302.072 366.758 274.512 382.356 251C388.854 241.205 413.291 221.597 418.463 244C420.505 252.844 413.705 261.015 409.464 268C404.414 276.318 401.201 286.258 401 296M266 255L302 240M203 248L200.039 271L204 314M400 300L400 310M217 306L228 329M223 313L247 350M399 313L399 330M205 319C208.872 339.783 212.883 360.995 215.166 382C215.98 389.487 218.848 398.49 217.492 406C216.53 411.328 211.464 414.383 209.178 419C206.113 425.191 207.821 433.022 214 436L216 423M249 319L253 334M304 331L299 353C312.973 343.612 330.299 341.05 346 348M400 335L394.003 382L390 405C413.264 394.988 435.684 388.685 455.996 372.334C462.266 367.287 468.44 350.758 478 352.667C487.833 354.63 490.529 366.763 488.788 375C485.597 390.091 470.999 401.702 458 408.677C409.845 434.52 359.162 442 305 442C285.641 442 263.866 447.327 245 442.36C240.548 441.188 232.69 442.034 229.434 438.682C225.642 434.779 227.402 428.734 228 424M254 338L248 415L266 413M373 348L374 350M250 352L252 354M374 352L375 354M299 353C287.173 365.366 283.437 379.399 281.83 396C281.468 399.743 279.048 408.157 282.603 410.972C287.765 415.06 302.692 411 309 411M376 359L380 378M380 382L377 403M208 432C195.072 440.8 174.738 441.359 160 437.761C152.562 435.945 143.201 430.058 145.587 421.004C147.439 413.977 155.877 411.306 162 409.344C178.702 403.991 196.569 403 214 403M388 405C379.964 423.385 361.981 428.293 347 439M376 406L362 427M270 412L280 412M248 415C239.402 423.623 238.074 428.264 239 440M265 429L264 441M214 436L229 441"/>
</svg>
