<?xml version="1.0" standalone="yes"?>
<svg xmlns="http://www.w3.org/2000/svg" width="514" height="514">
<path style="stroke:#000000; fill:none;" d="M109 76L102 75C105.055 80.0693 110.079 78.3375 115 76.7994C125.02 73.6676 134.452 64.9881 144 60.2477C188.294 38.2575 232.548 22.9083 282 19M286 19C310.696 36.5676 344.457 41.8079 372 53.8758C388.713 61.1985 407.014 77.2818 420 90C428.404 82.6577 439.87 65.2433 450 77C432.801 93.8416 413.052 109.025 395 125.05C389.93 129.551 377.215 137.292 375.497 144.015C374.341 148.536 382.315 155.017 385.09 158C393.838 167.408 412.404 181.227 414.904 194C423.549 238.169 434.825 281.949 437.91 327C439.77 354.147 435.099 380.312 434 407M250 68C233.837 66.7244 209.37 66.7087 195 59C204.926 52.8922 218.771 51.4338 230 48.6266C257.03 41.869 284.182 33.8045 312 36M134 81C154.685 78.71 173.326 60.7703 195 59M381 60C371.614 70.7433 362.383 79.6733 349 85L370 137L420 90M257 69L258 69M260 70C288.087 70.0619 313.16 79.7906 340 86M114 78C116.587 95.2594 136.6 102.194 148 113.04C172.36 136.216 193.297 164.335 213.654 191C221.238 200.934 234.276 213.12 235 226L237 224M141 79L167 83L162 82M106 80C95.4716 89.6975 83.7205 98.1563 74.2894 109C59.6423 125.841 47.1975 148.755 38 169L33 162L40 164M160 81L161 81M167 83C189.059 83.9618 212.631 93.2994 233 101.189C258.689 111.14 284.475 121.35 311 128.86C323.13 132.294 335.652 134.292 348 136.801C354.338 138.089 359.977 140.214 366 137C368.049 147.077 346.868 160.461 340 166.424C323.02 181.168 307.451 197.586 291 212.91C280.375 222.808 267.197 232.765 258.491 244.424C252.595 252.32 256.189 271.82 263 278C265.644 271.725 264.477 264.547 263.002 258C262.374 255.215 259.784 252.057 261.046 249.17C265.536 238.896 283.553 227.91 292 220.576C310.214 204.761 328.735 188.828 346 171.985C354.125 164.06 363.948 149.787 374 145M345 85L349 85M167 86L230 120.742L287 144M172 93C194.577 109.734 218.926 135.085 248 139M427 96C464.739 144.964 487 212.499 487 274C487 288.043 488.618 303.2 485.714 317C482.601 331.792 475.233 346.195 469.281 360C459.936 381.671 448.191 401.641 432.025 419C428.026 423.294 423.616 432.122 417.91 434.128C414.859 435.201 412.515 432.458 410 433M445 127L441 168L416 153.424L378 141M359 129L363 132L361 134L359 129M363 133L366 136M318 137L338 139M370 137L369 140M299 147C317.958 147 337.831 146.81 356 141M361 144L362 147M238 224L255 244C283.816 206.24 320.691 171.878 360 145M350 147L352 147M371 149C373.315 154.626 376.135 158.094 373 164L371 153M363 158L360 159M44 162C73.7437 165.759 103.053 176.913 129 192M362 162L353 204M442 169L456.576 213L462.285 269L473 332M37 171C9.24241 237.76 23.8459 325.971 66.159 384C82.0186 405.75 102.863 420.042 123 437.134C136.64 448.712 147.697 469.397 164 477C164.428 468.66 168.753 460.578 172.001 453C178.338 438.211 184.877 423.299 192.258 409C194.389 404.873 201.937 388.355 208.431 393.623C213.432 397.679 212.386 408.383 211.715 414C209.886 429.292 206.249 444.536 200.947 459C198.95 464.446 196.924 471.932 191.906 475.397C185.876 479.56 172.151 478 165 478M39 171C56.7494 183.135 74.8667 192.189 95 200M207 184L207 188M147 185L148 186M145 186L150 190L149 188M369 188L364.015 214L370 272M208 192L208 205M131 193L133 194M137 196L152 204M370 197C370 226.244 374.064 258.825 382 287M97 201L126 213M154 205C164.222 211.028 174.567 217.039 185 222.691C188.515 224.596 193.785 228.185 197.985 227.073C205.465 225.09 206.869 213.328 207 207M259 226L259 233M235 227L243 236M258 228L258 231M245 235L248 238M257 235L257 239M247 239C248.66 242.485 250.073 244.271 254 244M228 242L248 244M251 246C246.302 250.698 236.979 256.774 238 264L256 253M264 257C272.338 265.338 281.636 272.545 285.459 284C286.497 287.111 285.471 300.563 287.643 301.744C289.997 303.023 293.387 299.678 295 298.38C301.265 293.341 307.292 287.661 313 282M256 272L255 284M285 277L303 290M254 286C251.327 305.853 243.403 328.362 234 346M376 287C379.917 298.466 388.59 307.14 395.255 317C404.682 330.948 410.796 346.99 418.248 362C423.983 373.552 431.719 386.829 432 400L418.753 375L389 317M118 290L123 296C119.116 296.062 117.663 294.448 116 291M304 292C307.555 309.007 326.44 322.501 337.914 335C360.225 359.303 378.58 387.675 399.674 413C404.254 418.498 406.931 430.182 412 434M294 300L306 304M285 303L288 303M469 350L436 405M278 481C325.818 480.968 368.857 454.349 409 432M411 435L416 444L414 441M415 437L416 439M208 476C230.04 482.254 252.287 482 275 482"/>
</svg>
